<svg width="57" height="56" viewBox="0 0 57 56" fill="none" xmlns="http://www.w3.org/2000/svg">
<rect x="5.66406" y="5" width="45" height="44" rx="14" fill="#FFCF00"/>
<path fill-rule="evenodd" clip-rule="evenodd" d="M18.9745 5.09668H38.0489C46.334 5.09668 51.2733 10.036 51.2505 18.3212V37.3955C51.2505 45.6808 46.3113 50.62 38.0261 50.62H18.9745C10.6893 50.62 5.75 45.6808 5.75 37.3727V18.3212C5.75 10.036 10.6893 5.09668 18.9745 5.09668ZM13.9442 16.0223H20.5773L28.8226 24.606L27.7599 25.7504L19.9936 17.739H17.7864L24.9803 25.26L23.9177 26.4045L13.9442 16.0223ZM42.2235 39.2412H35.5905L27.3452 30.6575L28.4078 29.5131L36.1742 37.5245H38.3813L31.1873 30.0035L32.2501 28.859L42.2235 39.2412ZM20.6414 39.2397H14.0082L25.4531 26.9772L26.5159 28.1217L17.8504 37.5229H20.0577L26.1072 30.9012L27.17 32.0458L20.6414 39.2397ZM42.1286 16.0223H35.4954L28.967 23.2162L30.0296 24.3607L36.0791 17.739H38.2864L29.6209 27.1402L30.6836 28.2848L42.1286 16.0223Z" fill="#2B2E8C"/>
</svg>
